<svg width="224" height="224" viewBox="0 0 224 224" fill="none" xmlns="http://www.w3.org/2000/svg">
<circle cx="112" cy="112" r="112" fill="#E8EEF4"/>
<path d="M157.804 85.1522C155.826 83.0797 153.094 81.8551 149.986 81.8551H134.348V81.6667C134.348 79.3116 133.406 77.0507 131.804 75.5435C130.203 73.942 128.036 73 125.681 73H97.4203C94.971 73 92.8043 73.942 91.2029 75.5435C89.6014 77.1449 88.6594 79.3116 88.6594 81.6667V81.8551H73.1159C70.0072 81.8551 67.2754 83.0797 65.2971 85.1522C63.3188 87.1304 62 89.9565 62 92.971V139.884C62 142.993 63.2246 145.725 65.2971 147.703C67.2754 149.681 70.1014 151 73.1159 151H149.986C153.094 151 155.826 149.775 157.804 147.703C159.783 145.725 161.101 142.899 161.101 139.884V92.971C161.101 89.8623 159.877 87.1304 157.804 85.1522ZM156.203 139.884H156.109C156.109 141.58 155.449 143.087 154.319 144.217C153.188 145.348 151.681 146.007 149.986 146.007H73.1159C71.4203 146.007 69.913 145.348 68.7826 144.217C67.6522 143.087 66.9928 141.58 66.9928 139.884V92.971C66.9928 91.2754 67.6522 89.7681 68.7826 88.6377C69.913 87.5072 71.4203 86.8478 73.1159 86.8478H91.2971C92.7101 86.8478 93.8406 85.7174 93.8406 84.3043V81.5725C93.8406 80.5362 94.2174 79.5942 94.8768 78.9348C95.5362 78.2754 96.4783 77.8986 97.5145 77.8986H125.681C126.717 77.8986 127.659 78.2754 128.319 78.9348C128.978 79.5942 129.355 80.5362 129.355 81.5725V84.3043C129.355 85.7174 130.486 86.8478 131.899 86.8478H150.08C151.775 86.8478 153.283 87.5072 154.413 88.6377C155.543 89.7681 156.203 91.2754 156.203 92.971V139.884Z" fill="black" fill-opacity="0.05"/>
<path d="M111.551 93.2539C105.145 93.2539 99.3042 95.8916 95.1593 100.037C90.9202 104.276 88.3767 110.022 88.3767 116.428C88.3767 122.834 91.0144 128.674 95.1593 132.819C99.3984 137.058 105.145 139.602 111.551 139.602C117.956 139.602 123.797 136.964 127.942 132.819C132.181 128.58 134.725 122.834 134.725 116.428C134.725 110.022 132.087 104.181 127.942 100.037C123.797 95.8916 117.956 93.2539 111.551 93.2539ZM124.362 129.334C121.065 132.537 116.543 134.609 111.551 134.609C106.558 134.609 102.036 132.537 98.739 129.334C95.4419 126.037 93.4637 121.515 93.4637 116.522C93.4637 111.529 95.5361 107.008 98.739 103.71C102.036 100.413 106.558 98.4351 111.551 98.4351C116.543 98.4351 121.065 100.508 124.362 103.71C127.659 107.008 129.638 111.529 129.638 116.522C129.732 121.515 127.659 126.037 124.362 129.334Z" fill="black" fill-opacity="0.05"/>
<path d="M145.086 102.391C147.635 102.391 149.702 100.324 149.702 97.7751C149.702 95.2258 147.635 93.1592 145.086 93.1592C142.536 93.1592 140.47 95.2258 140.47 97.7751C140.47 100.324 142.536 102.391 145.086 102.391Z" fill="black" fill-opacity="0.05"/>
</svg>
