<?xml version="1.0" encoding="utf-8"?>
<!-- Generator: Adobe Illustrator 25.3.1, SVG Export Plug-In . SVG Version: 6.00 Build 0)  -->
<svg version="1.1" id="Layer_1" xmlns="http://www.w3.org/2000/svg" xmlns:xlink="http://www.w3.org/1999/xlink" x="0px" y="0px"
	 viewBox="0 0 24 24" style="enable-background:new 0 0 24 24;" xml:space="preserve">
<style type="text/css">
	.st0{fill:#00DACE;}
</style>
<g>
	<path class="st0" d="M21.5,11.7c-0.7-0.6-1.9-0.7-2.8,0.2l-1.5,1.6c-0.3-0.6-1-1-1.8-1h-3.1c-0.1,0-0.1,0-0.4-0.2L11.6,12
		c-1.6-1.4-3.7-1.4-5.3,0l-1,0.9C4.6,12.7,4,12.7,3.5,13l-1.3,0.6c-0.2,0.1-0.3,0.3-0.4,0.5s-0.1,0.4,0,0.6l3.5,7
		C5.4,22,5.7,22.2,6,22.2c0.1,0,0.3,0,0.4-0.1l1.3-0.6c0.6-0.3,1-0.9,1.1-1.6h6.7c1.4,0,2.7-0.7,3.5-1.7l2.8-3.8
		C22.5,13.6,22.4,12.4,21.5,11.7z M6.3,21.3l-3.4-6.8l1.5-0.6c0.1,0,3.4,6.4,3.4,6.4C7.9,20.4,6.3,21.3,6.3,21.3z M21.1,13.7
		l-2.9,3.8c-0.5,0.9-1.7,1.6-2.5,1.6l-7.5,0l-2.7-4.9L7,12.9c1.1-1.1,2.6-1.1,3.7,0c0.7,0.8,1.3,0.9,1.7,0.9h3.3
		c0.2,0,0.7,0.1,0.7,0.6c0,0.5-0.6,0.5-0.7,0.5h-3.2c-0.5,0-0.8,0.2-0.8,0.7s0.4,0.7,0.9,0.7l3.6-0.2c0.6,0,1.3-0.8,1.7-1.3l2-2.2
		c0.1-0.1,0.4-0.4,1-0.1C21.5,12.9,21.2,13.6,21.1,13.7z"/>
	<path class="st0" d="M9.7,10.5h5.9c0.5,0,0.8-0.4,0.8-0.8V9.1c0-1.3-0.6-2.5-1.7-3.2c0.3-0.4,0.5-1,0.5-1.6c0-1.5-1.2-2.6-2.6-2.6
		C11.2,1.8,10,3,10,4.4C10,5,10.2,5.5,10.5,6c-1,0.7-1.7,1.8-1.7,3.1v0.6C8.8,10.2,9.2,10.5,9.7,10.5z M12.8,2.6
		c0.8,0,1.5,0.7,1.5,1.6c0,0.8-0.7,1.5-1.5,1.5s-1.6-0.7-1.6-1.5C11.1,3.1,11.9,2.6,12.8,2.6z M12.6,6.6c1.4,0,2.5,1.2,2.7,2.8H9.9
		C10,7.8,11.3,6.6,12.6,6.6z"/>
</g>
</svg>
